# xmcd CD database file
#
# Track frame offsets:
#	150
#	20958
#	43443
#	63434
#	96406
#	115863
#	134632
#	155713
#	185535
#	205929
#	224653
#	246314
#	271171
#
# Disc length: 3792 seconds
#
# Revision: 0
# Processed by: cddbd v1.5.1PL2 Copyright (c) Steve Scherf et al.
# Submitted via: CDex 1.51
#
DISCID=d80ece0d
DTITLE=Pete York and the Allstar Jazzband - Another Cup Of Coffee
DYEAR=2005
DGENRE=Jazz
TTITLE0=Have Another Coffee
TTITLE1=Gold'n Rosted
TTITLE2=As Time Goes Bye
TTITLE3=My Old Bean
TTITLE4=Lullaby Of Broadway
TTITLE5=Cafe Noir
TTITLE6=Smack Dab In The Middle
TTITLE7=A Fez Full Of Cobras
TTITLE8=Bei Mir Bist Du Schön
TTITLE9=Pinky And The Percolator
TTITLE10=Nobody Knows When You're Down And Out
TTITLE11=In A Mocha Mood
TTITLE12=Low Down Dog
EXTD=YEAR: 2005
EXTT0=
EXTT1=
EXTT2=
EXTT3=
EXTT4=
EXTT5=
EXTT6=
EXTT7=
EXTT8=
EXTT9=
EXTT10=
EXTT11=
EXTT12=
PLAYORDER=
